<?xml version="1.0" encoding="UTF-8"?><svg id="Layer_2" xmlns="http://www.w3.org/2000/svg" viewBox="0 0 324.46 85.6"><defs><style>.cls-1{font-family:ElCaminoRegular, 'El Camino';font-size:63.42px;}.cls-1,.cls-2{fill:#fff;}.cls-2{stroke-width:0px;}</style></defs><g id="Layer_1-2"><path class="cls-2" d="m28.33,80.74c-.63.62-1.75.65-2.94.64-.15,0-.29,0-.41,0-1.26.03-4.51.18-5.45-.3-1.1-.57-.55-1.97-.14-2.86.55-1.21.23-2.39.15-3.67-.12-1.83-.25-3.65-.38-5.47-.04-.53-.62-.76-.99-.39-2.74,2.23-5.48,4.39-8.22,6.47-.61.58-.79,1.13-.79,1.98,0,.85.39,1.36.65,2.14.24.72.27,1.53-.48,1.91-.93.47-4.21.3-5.47.28-.11,0-.25,0-.41,0-1.19.02-2.31,0-2.94-.55-1.04-.88-.24-2.43.41-3.7.22-.42.42-.82.48-1.06.36-1.12,4.27-35.28,3.73-37.32-.03-.1-.06-.2-.1-.32-.18-.55-.43-1.29-.14-1.99.56-1.32,2.25-1.62,3.38-1.8.22-.04.43-.07.6-.11.46-.1.92-.21,1.38-.31,2.67-.59,5.34-1.16,8.01-1.72.46-.1.93-.19,1.39-.29.17-.03.37-.09.6-.15,1.13-.3,2.83-.75,3.4.44.3.63.05,1.55-.12,2.22-.04.14-.07.27-.1.38-.52,2.07,3.63,38.58,3.99,40.22.06.26.27.7.49,1.17.66,1.39,1.47,3.14.43,4.15Zm-10.3-22.88c-.48-5.78-1.17-11.41-1.59-16.09-.04-.46-.41-.76-.84-.68-.89.16-1.77.32-2.65.48-.43.08-.79.5-.83.96-.5,6.04-1.41,14.56-1.93,21.43-.04.55.57.83.96.43,2.2-1.86,4.4-3.77,6.6-5.72.2-.21.31-.51.28-.8Z"/><path class="cls-2" d="m58.46,73.53c-.36,1.8-1.18,5.49-1.47,6.26-.55,1.45-2.27,1.34-3.41,1.27-.07,0-4.58,0-9.32.02-.4.08-.81.12-1.21.13-1.46.16-2.89.14-4.34.16-1.1.01-2.25.07-3.31-.36-1.59-.63-.84-2.28-.23-3.49,1.12-2.19.8-4.35.8-6.79,0-4.52-.02-9.03-.04-13.55-.02-4.92-.04-9.85-.1-14.77-.02-1.74-.04-3.48-.08-5.21-.02-.76.04-1.63-.1-2.36-.31-1.54-2.98-3.78-.6-5.18,1.51-.89,3.18-.99,4.76-1.32.85-.18,1.71-.35,2.57-.43,4.44-.78,10.74-1.77,10.81-1.79,1.13-.25,2.85-.63,3.42.73.31.73,1.18,4.29,1.56,6.03.18.8-.31,1.67-.99,1.75-3.7.47-7.39.96-11.08,1.48-.9.13-1.66.89-1.98,1.87.01,2.06.04,6.04.08,10.57,0,.68.65,1.01,1.11.56,1.56-1.54,3.13-3.09,4.69-4.66.5-.61,1.31-.51,1.62.2.69,1.54,2.05,4.82,2.25,5.63.37,1.51-.97,2.94-1.85,3.88-.05.05-3.48,3.58-6.59,6.66-.71.7-1.12,1.74-1.11,2.82.03,3.24.06,5.86.08,7.17.35.86,1.1,1.44,1.96,1.41,3.7-.11,7.4-.22,11.1-.32.68-.02,1.18.77,1.02,1.6Z"/><path class="cls-2" d="m89.32,76.76c.68,1.33,1.5,3.19-.06,4.01-.57.3-1.17.43-1.78.5-1.36.07-2.76-.13-3.83-.81-1.19-.75-2.38-2.16-3.02-3.69-.74-1.77-.77-4.01-.84-5.98-.07-2.19-.05-4.38-.21-6.56-.2-2.7-.91-5.34-1.84-7.67-.21-.53-.72-.64-1.06-.24-.2.24-1.76,1.98-2.33,2.65-.62.74-1.04,1.73-1.21,2.82.07,6.49.14,11.56.16,12.22,0,.36.05.73.13,1.08.17.63.44,1.19.71,1.75.63,1.33,1.41,3.17-.18,3.88-.66.3-1.37.39-2.07.41-1.46.17-2.89.15-4.34.17-1.1.01-2.25.07-3.31-.39-1.59-.69-.85-2.48-.23-3.79.26-.56.53-1.11.69-1.73.08-.32.11-.65.11-.98,0-.89,0-1.78,0-2.67,0-9.22-.11-39.43-.41-41.01-.31-1.68-3-4.28-.62-5.66,1.17-.68,2.92-.69,4.14-.93.94-.19,1.88-.38,2.83-.49,4.45-.52,10.19-2.27,14.31.03,3.4,1.9,5.44,6.86,4.73,11.91-.5,3.55-2.84,6.78-4.54,9.5-.42.67-.84,1.33-1.27,1.97-.71,1.06-.77,2.61-.14,3.69.78,1.34,1.71,2.93,1.81,3.14,2.65,5.73,2.41,12.42,2.69,18.97.06,1.38.39,2.71.97,3.85,0,0,0,.01.01.02Zm-10.35-45.11c-1.7-.43-3.64.01-5.42.4-.33.07-.59.45-.59.88-.03,3.45,0,9.08.05,15.09,0,.5.47.78.76.43.89-1.14,5.7-7.13,6.83-9.39,1.46-2.91,1.15-6.71-1.63-7.41Z"/><path class="cls-2" d="m173.33,61.83c-.02,13.94-7.43,20.29-14.31,20.3-5.33,0-12.81-6.66-13-19.14-.08-5.16,1.74-10.85,4.1-14.54.48-.76,1.26-.83,1.8-.17,1.25,1.54,2.5,3.08,3.75,4.62.32.39.51.98.51,1.62,0,.61-.16,1.19-.45,1.58-1.11,1.49-2.27,4.39-2.25,6.62.08,5.55,3.94,7.79,5.53,7.79,1.14,0,6.84-.42,6.85-8.7,0-4.61-4.21-9.44-7.92-13.68-.97-1.11-1.98-2.26-2.93-3.42-3.95-4.87-5.59-12.04-4.18-18.31,1.3-5.78,4.82-9.28,9.43-9.29,1.68,0,3.1.62,4.29,1.56,1.74,1.37,2.91,3.18,4.01,5.01.96,1.59.84,3.56-.12,4.88-1.46,2-3.32,4.52-3.32,4.52-.52.65-1.33.97-2.01.66-.46-.21-.41-.97-.51-1.54-.2-1.12-.6-2.15-1.21-2.81-.33-.36-.72-.62-1.16-.67-.49-.04-1.93.2-2.26,1.96-.28,1.45.35,3.24,1.71,4.93.79.98,2.7,3.16,2.7,3.16,4.89,5.59,10.96,12.6,10.95,23.06Z"/><path class="cls-2" d="m201.15,28.97c-2.24-.1-4.49-.2-6.73-.29-1.2-.05-2.18,1.28-2.19,2.96-.03,9.51-.11,38.11-.06,38.33-.02,2.33-.05,4.37.83,6.43.62,1.45,1.37,3.44-.22,4.21-.67.32-1.37.42-2.08.44-1.46.18-2.89.16-4.34.17-1.1.01-2.25.07-3.3-.45-1.59-.78-.82-2.78-.19-4.23,1.14-2.63.84-5.23.86-8.19.03-5.46.06-10.92.08-16.37.02-5.95.04-11.9.03-17.86,0-.92,0-1.83,0-2.75,0-1.68-.98-3.06-2.17-3.08-2.26-.05-4.52-.1-6.77-.13-.68-.01-1.19-.93-1.01-1.86.38-2.02,1.24-6.19,1.54-7.07.56-1.64,2.3-1.47,3.45-1.36.22-.05,18.2.61,18.38.67,1.14-.03,2.87-.07,3.44,1.59.3.88,1.13,5.05,1.5,7.06.17.93-.33,1.8-1.02,1.77Z"/><path class="cls-2" d="m231.48,80.46c-.64.72-1.76.76-2.95.74-.16,0-.29,0-.41,0-1.26.03-4.52.2-5.44-.4-1.1-.72-.53-2.47-.11-3.55.56-1.48.26-2.96.19-4.55-.09-2.27-.21-4.55-.32-6.82-.03-.67-.61-1.01-.99-.58-2.77,2.52-5.54,5.08-8.31,7.66-.62.72-.8,1.44-.81,2.55-.01,1.12.38,1.8.63,2.83.23.94.25,2-.5,2.5-.93.61-4.21.37-5.47.34-.11,0-.25,0-.41,0-1.19.02-2.31-.02-2.94-.78-1.04-1.24-.22-3.38.43-5.1.22-.57.43-1.12.49-1.44.35-1.86,4.54-47.4,4.03-50.03-.03-.14-.06-.3-.1-.46-.18-.8-.43-1.89-.13-2.73.57-1.58,2.3-1.33,3.44-1.17.23.03.44.07.6.08.47.03.94.06,1.41.1,2.71.2,5.42.41,8.13.64.47.04.94.08,1.41.12.17.02.38.02.6.02,1.14.02,2.87.05,3.43,1.68.3.87.04,1.89-.15,2.65-.04.15-.08.3-.1.43-.55,2.62,3.16,47.28,3.5,48.94.06.32.26.84.47,1.4.64,1.67,1.43,3.74.38,4.93Zm-10.04-28.7c-.42-7.3-1.05-14.52-1.42-20.55-.04-.6-.4-1.07-.84-1.1-.9-.06-1.79-.12-2.69-.18-.44-.03-.8.4-.85,1-.56,7.64-1.57,18.49-2.15,27.41-.05.71.56,1.15.96.7,2.23-2.13,4.46-4.23,6.69-6.31.21-.23.32-.59.29-.96Z"/><path class="cls-2" d="m260.6,33.86c-2.23-.26-4.46-.52-6.7-.76-1.2-.13-2.18,1.02-2.19,2.56-.06,8.76-.24,35.09-.2,35.29-.02,2.14-.07,4.02.81,5.93.62,1.34,1.36,3.16-.23,3.87-.67.3-1.37.38-2.08.4-1.46.16-2.89.14-4.34.15-1.1.01-2.25.06-3.3-.42-1.58-.73-.81-2.6-.18-3.95,1.15-2.45.86-4.87.89-7.62.06-5.09.1-10.17.15-15.26.05-5.55.09-11.1.11-16.65,0-.86,0-1.71,0-2.56,0-1.56-.96-2.92-2.15-3.03-2.25-.21-4.5-.42-6.75-.61-.68-.06-1.18-.96-1-1.83.38-1.88,1.26-5.76,1.57-6.55.57-1.5,2.3-1.19,3.44-.99.22-.03,18.12,2.15,18.29,2.23,1.14.07,2.86.2,3.41,1.75.3.83,1.11,4.69,1.47,6.54.17.85-.34,1.61-1.02,1.53Z"/><path class="cls-2" d="m277.62,80.83c-.67.28-1.37.36-2.08.37-1.46.15-2.89.13-4.34.14-1.1,0-2.25.06-3.3-.4-1.58-.69-.81-2.46-.18-3.73,1.15-2.3.86-4.59.89-7.19.06-4.8.11-9.59.15-14.39.05-5.23.1-10.46.11-15.69,0-1.85.01-3.7,0-5.55,0-.81.07-1.71-.07-2.53-.28-1.71-2.93-5.02-.53-5.7,1.53-.43,3.2.05,4.78.25,1.67.2,3.39.45,4.98,1.38,2.06,1.2-.02,3.28-.45,4.6-.34,1.04-.34,2.44-.34,3.69-.02.12-.25,35.34-.2,35.57-.02,2.01-.07,3.77.81,5.55.62,1.26,1.36,2.96-.23,3.62Z"/><path class="cls-2" d="m322.85,71.97c.84.81,1.02,2.05.43,2.98-1.36,2.17-3.53,3.49-5.69,4.63-3.23,1.7-6.86,2.66-10.51,2.66-12.67.23-22.89-12.07-22.78-27.38.11-15.3,10.45-25.82,22.99-22.91,1.29.28,2.58.68,3.85,1.19,2.84,1.14,9.76,4.63,12.79,11.24,2.15,4.64-2.69,7.42-5.42,9.65-.45.36-1.12.41-1.68.13-.46-.23-.77-.64-.85-1.14-.72-4.33-1.94-8.74-6.03-11.62-3.27-2.31-7.22-3.05-10.31-1.75-6.36,2.62-8.25,13.36-4.17,22.91.58,1.36,1.27,2.65,2.05,3.83,2.67,4.07,6.33,6.79,10.05,7.58,1.83.39,3.68.32,5.36-.19,2.15-.66,3.52-2.15,4.69-3.63.05-.07.13-.2.2-.33.27-.47.6-1.05,1.18-1.11.31-.03.63.1.9.36.99.98,1.98,1.94,2.97,2.89Z"/><text class="cls-1" transform="translate(86.44 47.47) rotate(28.84)"><tspan x="0" y="0">o</tspan></text><rect class="cls-2" x="108.22" y="67.95" width="7.71" height="7.71" rx="1.96" ry="1.96" transform="translate(26.08 -29.79) rotate(17.1)"/></g></svg>