<?xml version="1.0" encoding="UTF-8"?><svg id="Layer_2" xmlns="http://www.w3.org/2000/svg" viewBox="0 0 137.01 143.15"><defs><style>.cls-1,.cls-2,.cls-3,.cls-4,.cls-5{stroke-width:0px;}.cls-2{fill:#ff8c00;}.cls-3{fill:#fff;}.cls-4{fill:#ffab00;}.cls-5{fill:#ff4b00;}</style></defs><g id="Layer_1-2"><path class="cls-1" d="m0,128.22c1.82-1.87,3.49-3.59,5.16-5.32,13.5-14.02,27.01-28.02,40.48-42.07,7.31-7.62,14.53-15.33,21.8-22.98.93-.97,1.92-1.89,2.95-2.75,2.25-1.88,4.85-2.88,7.79-2.91,2.8-.03,5.59-.03,8.39-.04.16,0,.32.03.68.06-.47.53-.83.93-1.19,1.33-10.43,11.37-20.87,22.71-31.27,34.1-9.56,10.47-19.06,21-28.61,31.49-3.19,3.5-6.67,6.65-11.33,8.05-1.7.51-3.49.9-5.26.99-3.1.16-6.21.04-9.58.04Z"/><path class="cls-1" d="m132.18,52.33c-.16,5.09-.09,10.14-.54,15.14-.37,4.03-2.54,7.4-5.31,10.31-5.46,5.71-10.96,11.38-16.44,17.06-.13.14-.3.24-.52.41-.43-4.42-2.07-8.23-5.01-11.4-1.38-1.49-2.92-2.83-4.48-4.13-5.82-4.86-8.06-11.08-7.12-18.52.35-2.74.78-5.46,1.14-8.19.07-.56.22-.86.87-.85,12.25.04,24.5.06,36.74.09.13,0,.26.04.67.11Z"/><path class="cls-1" d="m23.99,128.25c21.93-22.89,42.4-46.98,64.12-69.97-.07,2.66-.38,5.23-.14,7.75.24,2.54,1.04,5.03,1.62,7.69-3.64,2.52-7.03,5.71-10.33,8.99-3.1,3.08-5.92,6.37-7.65,10.46-.13.31-.36.58-.59.83-3.61,3.75-7.37,7.38-10.81,11.29-2.22,2.52-4.01,5.43-5.92,8.2-2.67,3.86-5.79,7.31-9.5,10.17-3.67,2.83-7.87,4.42-12.53,4.59-2.72.1-5.44.02-8.26.02Z"/><path class="cls-2" d="m38.54,46.93c.66-2.81,1.67-5.41,3.09-7.81,7.1-11.92,17.64-18.08,31.48-18.49,9.3-.28,17.33,3.05,24.4,8.93.23.19.48.54.48.82.03,5.48.02,10.96.02,16.59-1.4,0-2.76.03-4.12-.03-.2,0-.46-.45-.54-.73-2.59-9.06-11.15-15.23-20.56-14.79-8.72.41-16.19,6.44-18.54,14.93-.08.28-.51.67-.77.67-4.83.03-9.66.01-14.49,0-.1,0-.2-.04-.46-.09Z"/><path class="cls-1" d="m134.56,39.53c0-.65.06-1.19-.01-1.71-.22-1.61-1.55-2.87-3.15-2.91-2.1-.06-4.21-.11-6.31,0-4.01.21-6.24,3.94-4.53,7.58.46.98,1.19,1.84,1.85,2.72.43.57.95,1.08,1.54,1.75h-21.07c-.02-.35-.06-.65-.06-.95-.01-5.21-.03-10.42-.03-15.62,0-5.05,3.73-8.86,8.77-8.95,2.17-.04,4.35-.02,6.52,0,1.87.02,3.51.63,4.85,1.98,1.04,1.05,2.13,2.07,3.13,3.16.59.64,1.24.84,2.09.86,1.43.04,2.93.03,4.29.42,4.51,1.3,6.23,7.38,2.61,11.44-.08.09-.23.12-.49.24Zm-14.88-7.2c1.24.03,2.36-1.01,2.39-2.21.03-1.24-1.05-2.38-2.31-2.44-1.21-.05-2.4,1.11-2.41,2.34,0,1.18,1.11,2.29,2.33,2.31Z"/><path class="cls-1" d="m14.13,52.24h52.48c-.29.33-.47.56-.67.76-3.5,3.57-6.99,7.16-10.52,10.7-.34.34-.92.62-1.39.62-12.97.03-25.95.02-38.92.02-.31,0-.61,0-.99,0v-12.1Z"/><path class="cls-4" d="m54.69,3.25c12.35-4.13,24.63-4.42,37.13-.35-1.66,5.05-3.3,10-4.97,15.07-9.02-3.08-17.98-2.89-26.94.12-1.74-4.94-3.46-9.83-5.23-14.85Z"/><path class="cls-2" d="m76.13,126.87c0-.76,0-1.2,0-1.65,0-8.94.03-17.87-.04-26.81-.03-3.26.83-6.19,3.05-8.54,3-3.18,6.16-6.2,9.25-9.29.09.05.18.1.26.15.02.29.07.57.07.86,0,10.56.09,21.12-.04,31.67-.07,5.51-3.26,9.22-7.9,11.75-1.39.76-2.97,1.19-4.64,1.85Z"/><path class="cls-4" d="m49.5,5.31c1.85,5.02,3.64,9.87,5.46,14.8-5.95,3.07-10.89,7.33-14.73,12.84-4.56-3.24-9.08-6.46-13.68-9.74,6.38-7.67,14.09-13.46,22.96-17.9Z"/><path class="cls-1" d="m14.76,69.32h35.46c-.31.37-.49.63-.71.86-3.17,3.31-6.34,6.63-9.53,9.92-.24.25-.62.51-.93.51-4.31-.03-8.63.11-12.92-.21-5.89-.43-10.16-4.5-11.29-10.26-.05-.23-.04-.47-.07-.82Z"/><path class="cls-4" d="m15.07,46.9c1.81-6.77,4.65-12.99,8.32-18.98,4.76,3.23,9.45,6.42,14.09,9.58-.95,2.05-1.87,3.92-2.7,5.84-.41.94-.69,1.95-.98,2.94-.14.49-.33.74-.9.74-5.73-.02-11.45-.01-17.18-.02-.16,0-.32-.05-.65-.1Z"/><path class="cls-5" d="m88.73,46.96h-29.75c0-4.2,6.67-9.98,12.25-10.84,8.71-1.33,15.73,4.44,17.49,10.84Z"/><path class="cls-4" d="m93.66,112v-31.32c.13.05.23.06.3.12,2.03,1.77,4.1,3.49,6.07,5.32,5,4.63,5.72,11.86,1.76,17.36-.54.75-1.16,1.46-1.79,2.14-2.02,2.17-4.06,4.31-6.09,6.47-.08-.03-.16-.06-.24-.09Z"/><path class="cls-5" d="m71.24,126.65c-5.07-.99-8.83-3.5-11.08-8.1-1.31-2.69-.75-5.2,1.06-7.32,2.4-2.8,5.03-5.39,7.57-8.07.75-.79,1.51-1.56,2.44-2.51v26.01Z"/><path class="cls-4" d="m99.04,24.61c-2.51-1.59-4.91-3.12-7.38-4.69,1.69-4.93,3.4-9.91,5.14-14.98,6.14,3,11.64,6.67,16.84,11.47-6.82-.3-11.72,2.27-14.6,8.2Z"/><path class="cls-1" d="m81.47,133.3v9.85h-15.47v-9.85h15.47Z"/><path class="cls-4" d="m131.12,46.88c-1.04.36-1.41.08-1.85-.71-.7-1.24-1.69-2.31-2.62-3.41-.65-.77-1.29-1.5-1.24-2.71,1.07,0,2.06-.04,3.05.03.25.02.62.32.7.57.68,2.05,1.31,4.11,1.97,6.24Z"/><path class="cls-1" d="m34.81,85.75c-1.54,1.39-2.88,2.58-4.22,3.79-1.11-1.13-2.4-2.43-3.75-3.79h7.97Z"/><path class="cls-3" d="m119.69,32.33c-1.22-.03-2.33-1.13-2.33-2.31,0-1.23,1.2-2.4,2.41-2.34,1.26.06,2.35,1.2,2.31,2.44-.03,1.21-1.15,2.24-2.39,2.21Z"/></g></svg>