<?xml version="1.0" encoding="UTF-8"?><svg id="Layer_2" xmlns="http://www.w3.org/2000/svg" viewBox="0 0 603.57 113.13"><defs><style>.cls-1{fill:#fff;}</style></defs><g id="Layer_1-2"><path d="M40.34,113.13c-1.05,0-2.1,0-3.15,0-.92,0-1.59-.38-1.63-1.33-.1-2.17-.11-4.35-.14-6.52,0-.13.07-.32.17-.4,1.98-1.47,1.65-3.77,2.05-5.78.1-.53.03-1.24-.26-1.67-3.59-5.17-7-10.48-10.91-15.39-5.31-6.66-10.48-13.41-15.17-20.52-3.88-5.88-7.56-11.89-9.58-18.72C-1.39,32.28-.51,22.31,6.24,13.33c3.69-4.9,8.69-8.14,14.46-10.04,2.96-.98,6.05-1.77,9.13-2.1,2.5-.26,4.98-.7,7.46-.96,3.3-.35,6.68-.45,9.88.86.22.09.49.04.74.04,1.63.02,3.35-.28,4.88.13,3.8,1.02,7.72,1.96,11.23,3.66,9.19,4.44,14.85,11.78,16.46,21.99,1.21,7.64-.6,14.8-3.69,21.72-3.17,7.08-7.35,13.57-11.99,19.75-5.36,7.14-10.88,14.15-16.26,21.27-1.96,2.6-3.71,5.35-5.53,8.06-.17.25-.22.66-.15.96.32,1.5.69,2.98,1.06,4.47.05.22.12.45.25.62,2.01,2.56.8,5.46.85,8.21.01.72-.63,1.15-1.43,1.14-1.09,0-2.18,0-3.27,0,0,0,0,.01,0,.02ZM25.14,27.42c.21,3.77.42,7.35.61,10.77,4.85-.12,9.54-.24,14.31-.36v-11.07c-4.99-.43-9.9-.72-14.92.65ZM54.51,39.04c-4.72-.82-9.39-.88-14.09-.55v11.21h12.37c.54-3.35,1.11-6.89,1.72-10.67ZM40.45,26.45c5.04-.73,9.89-.27,14.97.56-.36-3.15-.73-6.11-1.04-9.09-.07-.73-.36-1.1-1.07-1.18-2.93-.33-5.86-.74-8.8-.97-1.35-.1-2.73.15-4.05.24v10.43ZM55.12,38.5c3.79.18,7.54.35,11.56.54.36-3.32.74-6.87,1.12-10.46-4.17-1.12-8.18-1.48-12.21-.99-.16,3.6-.32,7.3-.48,10.91ZM27.23,49.8c-.55-3.55-1.11-7.15-1.66-10.75-3.99-.38-7.95-.18-12.02.57,1.14,3.64,2.25,7.19,3.31,10.58,3.58-.14,6.97-.28,10.36-.41ZM25.77,16.64c-2.56-.6-5.2-.29-7.75.23-4.19.86-3.31.28-4.33,3.99-.11.4-.23.79-.29,1.2-.28,1.87-.54,3.74-.83,5.79,4.09-1.2,8-1.28,11.85-1.15.46-3.42.9-6.71,1.34-10.06ZM39.96,50.08h-12.21c.84,3.59,1.63,6.99,2.38,10.22h9.83v-10.22ZM26.41,15.81c4.69-.14,9.04-.27,13.56-.4V7.23c-2.79.12-5.59.17-8.38.42-.85.08-2.08.49-2.38,1.12-1.12,2.29-1.92,4.73-2.8,7.04ZM59.3,60.66c1.22-3.07,2.52-6.34,3.95-9.94-3.57-.15-6.87-.29-10.19-.43-.81,3.48-1.58,6.81-2.41,10.36h8.65ZM12.95,39.15c-.33-3.47-.66-7.02-1-10.6-2.21-.18-4.44.13-6.63.86-.94.31-1.44.81-1.23,1.89.14.73.08,1.5.21,2.24.38,2.3.81,4.6,1.19,6.74,2.69-.41,5.15-.78,7.46-1.13ZM66,17.05c-.81-2.46-2.1-4.88-3.76-7.11-.29-.39-.79-.76-1.26-.89-3.03-.84-6.09-1.3-9.06-.6,1.06,2.68,2.1,5.3,3.04,7.69,3.65.3,7.31.6,11.03.91ZM40.53,60.76v9.67h7.06c.81-3.15,1.61-6.28,2.48-9.67h-9.54ZM70.79,51.09c1.29-3.23,2.63-6.61,4.12-10.35-2.86-.38-5.46-.73-7.97-1.07-1.08,3.76-2.09,7.33-3.08,10.77,2.17.2,4.4.41,6.92.64ZM67.04,17.77c.47,3.61.89,6.9,1.3,10.05,2.57.46,5.2.93,7.89,1.4.03-2.82-.58-5.62-1.35-8.4-.22-.81-.65-1.34-1.44-1.54-2.16-.53-4.32-1.03-6.4-1.52ZM32.56,70.67c-.89-3.08-1.71-6.02-2.61-8.95-.1-.34-.6-.76-.94-.79-1.72-.12-3.44-.16-5.16-.14-.75.01-1.5.25-2.29.39,1.57,3.07,3.05,6,4.57,8.91.14.26.52.54.8.55,1.87.05,3.73.03,5.63.03ZM9.96,51.39c1.99,3.5,3.8,6.68,5.53,9.73,1.88-.17,3.54-.32,5.15-.46-1.24-3.12-2.48-6.23-3.75-9.33-.08-.2-.52-.39-.79-.38-1.94.11-3.87.27-6.14.44ZM6.1,18.56c1.85-.38,3.65-.91,5.48-1.08,1.59-.15,2.74-.53,3.06-2.28.08-.46.36-.9.61-1.32.96-1.64,1.95-3.26,2.97-4.95-.72.06-1.43.04-2.11.2-2.21.51-4.54.77-6.09,2.74-1.63,2.07-3.03,4.27-3.91,6.69ZM40.1,70.93h-7.01c.86,3.13,1.65,6.03,2.44,8.9h4.57v-8.9ZM65.12,61.47c-2.02-.1-3.77-.19-5.51-.25-.16,0-.41.2-.49.37-1.42,3.07-2.82,6.15-4.21,9.2,1.21.11,2.4.24,3.59.3.27.01.67-.14.8-.34,1.89-2.96,3.74-5.94,5.83-9.28ZM54.14,71.25c-1.07-.13-1.96-.29-2.84-.34-3.32-.18-3.32-.17-4.22,2.99-.03.11-.1.2-.13.31-.49,1.86-.97,3.73-1.48,5.7,1.29,0,2.42.05,3.53-.03.35-.02.83-.3.99-.59,1.37-2.58,2.69-5.18,4.16-8.04ZM40.65,1.6v5.08c3.47.29,6.86.56,10.3.85-1.01-1.4-2.06-2.9-3.15-4.36-.21-.28-.57-.56-.9-.61-2.04-.35-4.09-.63-6.24-.95ZM19.76,8.08c2.73-.17,5.7-.35,8.66-.57.3-.02.71-.21.87-.45.93-1.43,1.81-2.9,2.73-4.4-5.04-.08-9.24,1.73-12.26,5.41ZM30.37,79.8c-1.35-2.8-2.68-5.55-4.02-8.29-.08-.17-.32-.38-.48-.38-1.24.04-2.47.12-3.97.21,1.65,2.45,3.21,4.51,4.48,6.74.89,1.57,1.99,2.15,3.67,1.82.04,0,.07-.02.31-.11ZM76.91,30.22c-.47,3.48-.92,6.82-1.38,10.24.57.18,1.34.43,2.39.78.42-2.64.95-5.19,1.2-7.77.24-2.45.11-2.47-2.29-3.23-.03-.01-.07,0,.09-.01ZM9.34,51.05c-1.38-3.34-2.72-6.56-4.09-9.86-.53.2-1.21.46-2.13.81,1.37,3.31,2.7,6.52,4.02,9.7.93-.28,1.61-.48,2.19-.65ZM43.23,86.19c.53-1.9,1.06-3.77,1.61-5.74h-4.28v5.74h2.67ZM69.43,10.56c-3.33-3.12-9.08-6.12-11.72-6.18,1.32,1.28,2.75,2.68,4.21,4.06.25.24.59.44.92.52,2.23.56,4.47,1.09,6.58,1.6ZM71.23,51.82c-1.74,3.19-3.41,6.25-5.09,9.35.92.44,1.58.44,2.13-.59.68-1.29,1.55-2.47,2.3-3.72.88-1.47,1.72-2.96,2.64-4.55-.76-.19-1.36-.33-1.97-.48ZM36.7,85.97c-.21-.78-.42-1.56-.65-2.34q-.98-3.46-4.6-3.01s-.08.1-.15.19c.63,1.17,1.38,2.3,1.87,3.55.63,1.61,1.67,2.12,3.27,1.71.07-.02.14-.05.26-.09ZM5.4,19.57c-.75.63-1.68,1.02-1.91,1.67-.96,2.74-1.58,5.59-1.7,8.55,2.36-.75,1.91-.21,2.06-2.41.02-.26.06-.52.12-.77.46-2.26.92-4.52,1.43-7.03ZM38.01,104.24h4.78c-.37-1.57-.73-3.08-1.08-4.58-.53.34-.99.87-1.46.88-.45.01-.91-.51-1.35-.78-.29,1.48-.58,2.97-.88,4.48ZM20.94,70.95c-.2-.36-.37-.69-.56-1-1.52-2.45-3.05-4.89-4.57-7.34-.73-1.19-.8-1.22-2.04-.43,1.86,2.67,3.71,5.36,5.6,8.01.33.46.61,1.19,1.56.76ZM47.15,85.91l.14.32c.6-.19,1.45-.19,1.75-.6,1.1-1.49,2.02-3.11,3.04-4.73-.33-.09-.6-.16-.88-.23-.97-.23-1.66-.09-2.08,1.01-.55,1.45-1.3,2.83-1.97,4.24ZM38.68,96.14c.44.91.77,1.65,1.16,2.37.44.8.77.79,1.22-.04.39-.74.71-1.52,1.08-2.32h-3.47ZM54.6,78.65c.07.07.14.14.2.21,1.88-2.28,3.77-4.57,5.65-6.85-.07-.12-.14-.25-.21-.37-.37.13-.91.14-1.09.4-1.55,2.18-3.04,4.41-4.55,6.62Z"/><path class="cls-1" d="M25.14,27.42c5.03-1.37,9.93-1.08,14.92-.65v11.07c-4.77.12-9.47.24-14.31.36-.19-3.42-.4-7-.61-10.77Z"/><path class="cls-1" d="M54.51,39.04c-.61,3.78-1.18,7.32-1.72,10.67h-12.37v-11.21c4.69-.33,9.36-.27,14.09.55Z"/><path class="cls-1" d="M40.45,26.45v-10.43c1.33-.09,2.7-.35,4.05-.24,2.94.23,5.87.64,8.8.97.71.08,1,.45,1.07,1.18.3,2.97.67,5.94,1.04,9.09-5.07-.83-9.93-1.29-14.97-.56Z"/><path class="cls-1" d="M55.12,38.5c.16-3.61.32-7.31.48-10.91,4.03-.49,8.03-.12,12.21.99-.39,3.59-.77,7.14-1.12,10.46-4.02-.19-7.78-.36-11.56-.54Z"/><path class="cls-1" d="M27.23,49.8c-3.39.13-6.78.27-10.36.41-1.06-3.39-2.17-6.94-3.31-10.58,4.07-.76,8.03-.96,12.02-.57.56,3.59,1.11,7.19,1.66,10.75Z"/><path class="cls-1" d="M25.77,16.64c-.45,3.35-.89,6.64-1.34,10.06-3.85-.13-7.76-.05-11.85,1.15.29-2.04.55-3.92.83-5.79.06-.4.18-.8.29-1.2,1.02-3.72.14-3.14,4.33-3.99,2.56-.52,5.19-.83,7.75-.23Z"/><path class="cls-1" d="M39.96,50.08v10.22h-9.83c-.75-3.23-1.54-6.62-2.38-10.22h12.21Z"/><path class="cls-1" d="M26.41,15.81c.89-2.3,1.69-4.75,2.8-7.04.31-.63,1.54-1.05,2.38-1.12,2.78-.25,5.58-.29,8.38-.42v8.18c-4.52.13-8.87.26-13.56.4Z"/><path class="cls-1" d="M59.3,60.66h-8.65c.82-3.55,1.6-6.88,2.41-10.36,3.32.14,6.63.28,10.19.43-1.43,3.6-2.73,6.87-3.95,9.94Z"/><path class="cls-1" d="M12.95,39.15c-2.31.35-4.78.72-7.46,1.13-.38-2.14-.8-4.44-1.19-6.74-.12-.74-.06-1.51-.21-2.24-.21-1.08.3-1.58,1.23-1.89,2.19-.72,4.42-1.04,6.63-.86.34,3.58.67,7.13,1,10.6Z"/><path class="cls-1" d="M66,17.05c-3.72-.31-7.38-.61-11.03-.91-.95-2.39-1.98-5.01-3.04-7.69,2.97-.7,6.03-.24,9.06.6.47.13.96.49,1.26.89,1.66,2.23,2.95,4.65,3.76,7.11Z"/><path class="cls-1" d="M40.53,60.76h9.54c-.87,3.39-1.67,6.52-2.48,9.67h-7.06v-9.67Z"/><path class="cls-1" d="M70.79,51.09c-2.53-.23-4.75-.44-6.92-.64.98-3.45,2-7.01,3.08-10.77,2.51.34,5.11.68,7.97,1.07-1.49,3.74-2.84,7.12-4.12,10.35Z"/><path class="cls-1" d="M67.04,17.77c2.08.49,4.24.99,6.4,1.52.79.19,1.22.73,1.44,1.54.77,2.78,1.38,5.58,1.35,8.4-2.69-.48-5.32-.95-7.89-1.4-.41-3.16-.83-6.44-1.3-10.05Z"/><path class="cls-1" d="M32.56,70.67c-1.89,0-3.76.02-5.63-.03-.28,0-.66-.29-.8-.55-1.52-2.91-3.01-5.84-4.57-8.91.79-.14,1.54-.38,2.29-.39,1.72-.02,3.45.02,5.16.14.34.02.83.45.94.79.9,2.92,1.72,5.87,2.61,8.95Z"/><path class="cls-1" d="M9.96,51.39c2.27-.17,4.2-.33,6.14-.44.26-.01.7.17.79.38,1.28,3.1,2.51,6.21,3.75,9.33-1.6.14-3.27.29-5.15.46-1.73-3.05-3.54-6.23-5.53-9.73Z"/><path class="cls-1" d="M6.1,18.56c.88-2.42,2.29-4.62,3.91-6.69,1.55-1.97,3.89-2.23,6.09-2.74.67-.16,1.39-.13,2.11-.2-1.02,1.69-2,3.31-2.97,4.95-.25.42-.53.86-.61,1.32-.32,1.75-1.46,2.13-3.06,2.28-1.83.17-3.63.7-5.48,1.08Z"/><path class="cls-1" d="M40.1,70.93v8.9h-4.57c-.79-2.87-1.58-5.78-2.44-8.9h7.01Z"/><path class="cls-1" d="M65.12,61.47c-2.08,3.33-3.94,6.32-5.83,9.28-.13.21-.53.36-.8.34-1.19-.06-2.38-.19-3.59-.3,1.39-3.05,2.79-6.13,4.21-9.2.08-.17.33-.37.49-.37,1.74.06,3.49.15,5.51.25Z"/><path class="cls-1" d="M54.14,71.25c-1.47,2.86-2.78,5.47-4.16,8.04-.16.3-.64.57-.99.59-1.12.08-2.24.03-3.53.03.51-1.97.99-3.83,1.48-5.7.03-.11.1-.21.13-.31.91-3.16.91-3.18,4.22-2.99.89.05,1.77.21,2.84.34Z"/><path class="cls-1" d="M40.65,1.6c2.15.32,4.2.6,6.24.95.33.06.69.33.9.61,1.1,1.46,2.15,2.95,3.15,4.36-3.44-.28-6.83-.56-10.3-.85V1.6Z"/><path class="cls-1" d="M19.76,8.08c3.02-3.69,7.22-5.49,12.26-5.41-.92,1.5-1.8,2.97-2.73,4.4-.16.24-.56.43-.87.45-2.96.22-5.93.39-8.66.57Z"/><path class="cls-1" d="M30.37,79.8c-.24.08-.28.1-.31.11-1.69.33-2.79-.25-3.67-1.82-1.27-2.23-2.83-4.29-4.48-6.74,1.49-.09,2.73-.17,3.97-.21.16,0,.39.21.48.38,1.34,2.74,2.67,5.49,4.02,8.29Z"/><path class="cls-1" d="M76.91,30.22c-.16.02-.12,0-.09.01,2.4.77,2.53.78,2.29,3.23-.25,2.58-.78,5.13-1.2,7.77-1.05-.34-1.82-.59-2.39-.78.46-3.42.91-6.76,1.38-10.24Z"/><path class="cls-1" d="M9.34,51.05c-.58.17-1.26.38-2.19.65-1.32-3.18-2.65-6.39-4.02-9.7.92-.35,1.6-.61,2.13-.81,1.37,3.3,2.7,6.53,4.09,9.86Z"/><path class="cls-1" d="M43.23,86.19h-2.67v-5.74h4.28c-.55,1.97-1.08,3.84-1.61,5.74Z"/><path class="cls-1" d="M69.43,10.56c-2.12-.51-4.36-1.04-6.58-1.6-.33-.08-.67-.28-.92-.52-1.46-1.38-2.89-2.78-4.21-4.06,2.64.06,8.39,3.06,11.72,6.18Z"/><path class="cls-1" d="M71.23,51.82c.61.15,1.21.3,1.97.48-.92,1.6-1.76,3.09-2.64,4.55-.75,1.25-1.62,2.44-2.3,3.72-.54,1.02-1.21,1.03-2.13.59,1.69-3.09,3.36-6.16,5.09-9.35Z"/><path class="cls-1" d="M36.7,85.97c-.12.04-.19.07-.26.09-1.6.4-2.64-.1-3.27-1.71-.48-1.24-1.24-2.38-1.87-3.55.07-.09.11-.18.15-.19q3.62-.44,4.6,3.01c.22.78.43,1.56.65,2.34Z"/><path class="cls-1" d="M5.4,19.57c-.51,2.52-.97,4.77-1.43,7.03-.05.26-.1.52-.12.77-.16,2.2.3,1.66-2.06,2.41.12-2.96.74-5.81,1.7-8.55.23-.64,1.16-1.04,1.91-1.67Z"/><path class="cls-1" d="M38.01,104.24c.3-1.52.59-3.01.88-4.48.44.28.9.8,1.35.78.47-.01.93-.54,1.46-.88.36,1.51.71,3.01,1.08,4.58h-4.78Z"/><path class="cls-1" d="M20.94,70.95c-.95.43-1.24-.3-1.56-.76-1.89-2.66-3.74-5.34-5.6-8.01,1.23-.79,1.31-.76,2.04.43,1.51,2.45,3.05,4.89,4.57,7.34.19.31.36.63.56,1Z"/><path class="cls-1" d="M47.15,85.91c.66-1.41,1.41-2.79,1.97-4.24.42-1.1,1.11-1.24,2.08-1.01.28.07.55.14.88.23-1.02,1.62-1.94,3.24-3.04,4.73-.3.41-1.15.41-1.75.6l-.14-.32Z"/><path class="cls-1" d="M38.68,96.14h3.47c-.37.8-.69,1.58-1.08,2.32-.44.84-.78.85-1.22.04-.39-.71-.72-1.46-1.16-2.37Z"/><path class="cls-1" d="M54.6,78.65c1.51-2.21,2.99-4.44,4.55-6.62.18-.26.72-.27,1.09-.4.07.12.14.25.21.37-1.88,2.28-3.77,4.57-5.65,6.85-.07-.07-.14-.14-.2-.21Z"/><g id="Ph96fM.tif"><path d="M197.06,89.4c-3.25-2.28-7.3-1-11.01-1.34-15.69-1.44-10.76-10.98-7.04-21.63,3.51-10.05,9.39-20.26,12.55-30.1,4.01-12.5,1.17-23.9-14.21-22.14-15.67,1.79-38.55,24.45-50.79,33.93-6.76,5.24-15.66,3.27-23.86,4.85-2.8.54-11.63,3.33-6.48,6.78,4.65,3.12,19.27-2.79,11.3,7.34-5.53,7.03-14.33,14.12-19.36,21.32-4.81,6.88-1.12,11.32,6.87,9.51,4.9-1.11,10.35-11.71,13.56-15.78,4.25-5.39,13.52-17.25,19.3-20.04,1.83-.88,2.6-1.15,4.67-1.34,4.9-.46,12.32.26,17.39.7,2.66.23,12.46.95,14.08,1.95,4.81,2.94-1.41,15.86-1.72,20.36-1.12,16.5,15.76,15.51,27.25,12.49,2.66-.7,7.66-1.8,8.17-4.85,6.73,8.46,22.35,7.19,32.42,6.68,7.12-.36,7.02-1.03,14.64,0,10.07,1.38,12.97-8.16,18.14-14.61,3.51-4.37,8.95-10.25,14.79-11.23,7.48-1.25,12.38,3.26,17.89-3.48,6-7.35-1.81-7.28-7.95-6.59-3.07.34-10.16,3.46-12.08,3.27-2.69-.27-3.42-5.41-9.98-4.61-7.32.88-5.02,4.06-5.81,8.86-2.3,13.88-18.2,22.01-31.31,18.03l-.36-2.33c5.51-4.48,12.5-8.26,17.73-12.96,3.24-2.91,7.59-6.72,1.8-9.79-6.02-3.2-18.05-2-24.53-.2-10.28,2.85-28.64,14.52-26.06,26.96ZM438.1,44.3c-2.4-2.04-9.19.78-11.52,2.5-2.54,1.87-5.21,6.1-7.74,7.6-2.83,1.68-5.84,1.28-8.67,2.01-7.77,2-1.72,5.64-2.77,9.85-.76,3.04-9.28,13.04-11.35,17.36-2.8,5.85-3.57,11.66,3.84,13.73,5.33,1.49,20.9,1.15,26.36-.28.9-.23,1.73-1.41,2.33-1.45.36-.02,4.81,2.13,6.75,2.36,9.05,1.09,10.59-1.77,17.45-3.09,4.47-.87,5.84,1.17,9.63,2.07,9.42,2.24,17.27.34,26.3.37,18.01.07,36.03,1.41,54.14.75,2.18-.08,4.24-1.24,5.99-1.24,2.77,0,7.86,1.75,11.29,1.82,9.42.18,30.42-2.44,38.95-6.46,4.3-2.03,6.92-7.16,1.17-8.07-8.2-1.29-23.74,4.14-34.73,3.31-20.44-1.55-10.02-15.57,3.55-18.48,10.08-2.16,5.96,2.42,9.78,5.19,4.81,3.48,13.84-6.2,9.39-11.35-4.28-4.95-22.9,0-28.56,2.14-10.26,3.88-24.54,13.03-19.2,25.8-22.03.76-17.57-4.97-7.02-17.31,1.92-2.25,10.41-8.58,8.28-11.89-3.54-1.74-6.46-1.6-9.98.21-3.51,1.81-18.94,21.64-20.36,25.65-.39,1.09-.33,2.22-.32,3.34-3.34,0-12.57.54-13.24-3.8-.44-2.89,8.82-15.52,11.24-17.82,4.31-4.1,8.14-3.39,12.69-5.33,5.92-2.52-.25-5.84.3-8.38.36-1.66,13.35-11.84,3.39-11.78-9.7.06-12.05,9.98-20.89,12.34-1.28.34-2.79.1-4.21.46-7.77,2-1.72,5.64-2.77,9.85-.77,3.09-9.47,13.33-11.59,17.79-.91,1.92-1.71,3.8-1.67,5.99-4.53-.14-10.46,1-13.92-2.42-2.33-7.15,22.68-16.97,10.41-23.65-8.13-4.43-27.85-1.03-36.33,2.69-8.2,3.59-21.2,13.29-18.26,23.41-4.63.51-21.02,2.93-18.08-5.67.94-2.76,8.48-13.14,10.73-15.28,4.31-4.1,8.14-3.39,12.69-5.33,5.92-2.52-.25-5.84.3-8.38s10.03-7.84,6.21-11.09ZM544.07,46.36c-1.39,1.46-2.48,4.53-.91,6.11,3.03,2.18,10.31.43,12.07-2.64,3.88-6.76-7.44-7.36-11.16-3.47ZM386.04,59.6c-8.62.07-26.3,5.05-25.3,16.15.48,5.31,9.38,8.91,5.06,12.34-6.33,5.02-12.9-3.45-18.67-2.65-2.07.28-6.84,3.51-6.85,5.63,0,4.6,13.85,7.65,17.48,7.65,8.29,0,27.76-7.3,20.93-18.19-1.9-3.04-7.89-6.33-4.88-10.41,4.17-5.65,13.78,1.09,17.88-.16.7-.21,5.6-5.07,5.71-5.62.7-3.59-8.92-4.76-11.37-4.74ZM306.84,84.55c-5.58-6.84,10.81-16.38,16.84-16.51,3.22-.07,4.76,1.72,7.42,2.01,8.34.91,14.99-8.48,3.19-9.87-11.44-1.35-23.1,1.37-32.27,8.3-18.53,14-9.33,31.51,12.96,30.22,13.6-.79,28.3-7.76,32.6-21.44,2.05-6.51.64-12.32-7.08-8.37-4.43,2.26-2.76,4.21-4.3,7.67-3.13,7.01-23.79,14.8-29.36,7.97Z"/><path d="M438.1,44.3c3.82,3.25-5.64,8.47-6.21,11.09s5.62,5.86-.3,8.38c-4.55,1.94-8.38,1.23-12.69,5.33-2.25,2.14-9.79,12.52-10.73,15.28-2.94,8.61,13.44,6.18,18.08,5.67-2.94-10.11,10.06-19.82,18.26-23.41,8.48-3.71,28.2-7.11,36.33-2.69,12.27,6.68-12.74,16.5-10.41,23.65,3.46,3.42,9.39,2.27,13.92,2.42-.04-2.19.76-4.06,1.67-5.99,2.11-4.45,10.82-14.7,11.59-17.79,1.05-4.21-5-7.85,2.77-9.85,1.42-.37,2.93-.12,4.21-.46,8.84-2.36,11.19-12.28,20.89-12.34,9.96-.06-3.03,10.12-3.39,11.78-.55,2.54,5.62,5.86-.3,8.38-4.55,1.94-8.38,1.23-12.69,5.33-2.42,2.3-11.69,14.93-11.24,17.82.67,4.34,9.9,3.81,13.24,3.8-.02-1.13-.07-2.25.32-3.34,1.42-4.01,16.85-23.85,20.36-25.65,3.52-1.81,6.43-1.95,9.98-.21,2.14,3.31-6.35,9.64-8.28,11.89-10.54,12.34-15,18.07,7.02,17.31-5.34-12.77,8.94-21.92,19.2-25.8,5.66-2.14,24.28-7.08,28.56-2.14,4.45,5.14-4.58,14.83-9.39,11.35-3.83-2.77.3-7.35-9.78-5.19-13.57,2.91-24,16.93-3.55,18.48,10.99.83,26.53-4.59,34.73-3.31,5.76.9,3.14,6.04-1.17,8.07-8.53,4.02-29.53,6.64-38.95,6.46-3.43-.07-8.51-1.82-11.29-1.82-1.75,0-3.81,1.16-5.99,1.24-18.11.66-36.13-.68-54.14-.75-9.02-.03-16.88,1.87-26.3-.37-3.79-.9-5.16-2.94-9.63-2.07-6.86,1.33-8.41,4.18-17.45,3.09-1.95-.23-6.39-2.39-6.75-2.36-.6.04-1.43,1.22-2.33,1.45-5.46,1.43-21.04,1.77-26.36.28-7.41-2.07-6.64-7.88-3.84-13.73,2.07-4.32,10.59-14.32,11.35-17.36,1.05-4.21-5-7.85,2.77-9.85,2.83-.73,5.84-.33,8.67-2.01,2.52-1.5,5.2-5.73,7.74-7.6,2.33-1.71,9.12-4.54,11.52-2.5ZM458.85,69.62c-5.82.41-13.37,3.11-17.85,6.86-10,8.37,1.23,13.4,10.22,9.52,2.67-1.15,15.11-11.32,15.13-13.57.02-2.99-5.44-2.95-7.51-2.81Z"/><path d="M197.06,89.4c-2.58-12.45,15.78-24.11,26.06-26.96,6.48-1.8,18.5-2.99,24.53.2,5.79,3.07,1.45,6.88-1.8,9.79-5.23,4.7-12.22,8.48-17.73,12.96l.36,2.33c13.12,3.98,29.02-4.15,31.31-18.03.79-4.8-1.5-7.97,5.81-8.86,6.56-.79,7.29,4.34,9.98,4.61,1.92.2,9.01-2.93,12.08-3.27,6.14-.69,13.96-.76,7.95,6.59-5.51,6.75-10.4,2.23-17.89,3.48-5.84.98-11.28,6.85-14.79,11.23-5.17,6.45-8.07,15.98-18.14,14.61-7.62-1.04-7.52-.37-14.64,0-10.07.51-25.69,1.78-32.42-6.68-.52,3.05-5.51,4.15-8.17,4.85-11.49,3.02-28.37,4.01-27.25-12.49.31-4.5,6.53-17.42,1.72-20.36-1.62-.99-11.42-1.72-14.08-1.95-5.07-.44-12.49-1.16-17.39-.7-2.07.19-2.84.46-4.67,1.34-5.78,2.79-15.05,14.66-19.3,20.04-3.21,4.07-8.66,14.67-13.56,15.78-7.99,1.81-11.69-2.62-6.87-9.51,5.03-7.2,13.82-14.28,19.36-21.32,7.97-10.13-6.65-4.23-11.3-7.34-5.15-3.45,3.67-6.24,6.48-6.78,8.2-1.57,17.11.39,23.86-4.85,12.24-9.49,35.12-32.14,50.79-33.93,15.38-1.76,18.21,9.64,14.21,22.14-3.16,9.84-9.03,20.05-12.55,30.1-3.72,10.65-8.66,20.19,7.04,21.63,3.7.34,7.75-.94,11.01,1.34ZM172.79,51.23c2.2-2.1,6.62-14.3,6.56-17.41-.23-12.28-14.91-3.56-20.04-.34-3.3,2.07-16.81,11.72-18.39,14.29-1.48,2.4-.89,3.32,1.75,3.63,6.77.79,15.11,1.16,21.97,1.43,2.78.11,5.99.48,8.15-1.59ZM227.63,68.92c-4.36.69-16.71,7.24-17.55,11.77-.81,4.38,5.3,2.16,7.28,1.3,1.71-.74,16.46-9.49,17.11-10.25,3.14-3.69-4.45-3.2-6.84-2.82Z"/><path d="M306.84,84.55c5.57,6.82,26.24-.96,29.36-7.97,1.54-3.46-.13-5.41,4.3-7.67,7.73-3.95,9.13,1.85,7.08,8.37-4.29,13.67-19,20.65-32.6,21.44-22.29,1.29-31.49-16.22-12.96-30.22,9.18-6.93,20.83-9.65,32.27-8.3,11.79,1.39,5.15,10.78-3.19,9.87-2.66-.29-4.2-2.08-7.42-2.01-6.03.13-22.42,9.67-16.84,16.51Z"/><path d="M386.04,59.6c2.45-.02,12.07,1.15,11.37,4.74-.11.54-5.01,5.4-5.71,5.62-4.1,1.24-13.72-5.49-17.88.16-3.01,4.08,2.97,7.37,4.88,10.41,6.82,10.89-12.64,18.2-20.93,18.19-3.64,0-17.49-3.06-17.48-7.65,0-2.12,4.77-5.34,6.85-5.63,5.78-.79,12.34,7.67,18.67,2.65,4.32-3.43-4.58-7.02-5.06-12.34-1-11.1,16.68-16.08,25.3-16.15Z"/><path d="M544.07,46.36c3.72-3.9,15.04-3.3,11.16,3.47-1.77,3.08-9.05,4.83-12.07,2.64-1.57-1.58-.48-4.65.91-6.11Z"/><path class="cls-1" d="M458.85,69.62c2.07-.15,7.53-.18,7.51,2.81-.02,2.26-12.46,12.42-15.13,13.57-8.99,3.88-20.22-1.15-10.22-9.52,4.48-3.75,12.03-6.44,17.85-6.86Z"/><path class="cls-1" d="M172.79,51.23c-2.16,2.07-5.37,1.69-8.15,1.59-6.86-.26-15.2-.64-21.97-1.43-2.64-.31-3.24-1.22-1.75-3.63,1.58-2.57,15.09-12.22,18.39-14.29,5.13-3.22,19.81-11.94,20.04.34.06,3.12-4.37,15.31-6.56,17.41Z"/><path class="cls-1" d="M227.63,68.92c2.39-.38,9.98-.87,6.84,2.82-.65.76-15.39,9.51-17.11,10.25-1.98.86-8.09,3.08-7.28-1.3.84-4.52,13.18-11.08,17.55-11.77Z"/></g></g></svg>