<?xml version="1.0" encoding="UTF-8"?><svg id="Layer_2" xmlns="http://www.w3.org/2000/svg" viewBox="0 0 597.7 135.52"><defs><style>.cls-1{fill:#fff;}</style></defs><g id="Layer_1-2"><path class="cls-1" d="M147.28,113.56c9.33-1.18,19.3-7.28,26.51-13.24,11.44-9.46,30.92-31.67,46.72-31.27,7.93.2,10.85,6.73,8.15,13.65-5.67,14.54-29.26,21.86-43.34,23.66-1.79,1-6.11,7.01-6.97,9.03-3.9,9.28,2.86,8.13,9.31,6.31,16.82-4.76,28.46-17.9,41.11-28.89,3.64-3.16,20.82-16.14,21.78-19.22.68-2.17.21-5.83.95-8.55,1.55-5.65,10.89-15.01,16.29-9.25,2.87,3.06,2.56,6.3-.77,8.77-2.45,1.81-6.76,1.92-7.74,5,6.3.51,11.13,4.47,10.44,11.2-.94,9.14-19.74,23.43-25.65,31.35-2,2.68-4.79,6.52-3.5,10.01,2.53,1.82,8.48-2.27,10.67-3.85,20.2-14.58,35.51-41.16,61.65-47.85,13.61-3.48,21.72,2.41,16.13,16.63-6.33,16.12-27.66,32.58-43.26,39.24-10.29,4.39-24.12,8.62-24.49-7.73l-13.06,9.18c-5.03,2.64-14.38,4.06-18.15-1.22-5.92-8.29,4.19-19.46,9.46-25.47,4.11-4.69,18.88-18.02,20-22.95.85-3.73-3.94.54-4.76,1.19-18.69,14.98-49.35,48.99-73.25,50.75-7.65.56-15.63-1.69-15.78-10.75-.03-1.55.71-3.05.56-4.49-.18-1.68-2.89.52-4.03.98-5.97,2.37-12.5,4.72-18.98,4.77.42,3.21,3.71,7.59,1.94,10.69-1.07,1.88-10.08,4.64-12.08,4.21-3.18-.69-5.69-9.3-4.6-11.89.49-1.16,2.27-1.51,2.73-2.51-13.19.29-24.32-5.51-34.74-12.84-13.57,7.72-28.35,14.85-43.54,18.8-13.64,3.55-39.29,7.33-49.47-4.95-6.78-8.19-3.47-23.3,7.36-25.65,4.5-.98,8.67.39,7.79,5.77-1.06,6.5-18.01,6.16-9.66,15.89,7.3,8.51,32.33,3.97,42.27,1.74,14.09-3.17,27.69-8.9,39.78-16.75-10-14.94-16.56-28.17-15.3-46.77,2.5-37.01,41.06-61.13,65.53-24.49,6.29,9.42,6.4,16.01,9.47,26.04.17.56-.33.89.76.72,28.64-22.14,59.5-45.98,94.87-56.13,2.55-.73,8.84-2.79,11.12-2.38.57.1,1.02.19,1.19.83,2.2,6.55-11.48,10.25-15.77,12.6-29.54,16.18-53.91,50.64-75.41,76.09-6.75,8-14.48,15.2-20.26,23.99ZM120.28,23.07l11.22,17.98c1.06-1.38,3.65-2.36,2.91-4.32-.88-2.32-12.49-15.01-14.12-13.66ZM149.28,89.56c1.3,1.1,5.05-3.23,6.01-4.23,15.34-15.98,28.75-33.89,44.98-49.02,4.15-3.87,9.68-7.62,13.51-11.49.53-.53,1.18-.87.99-1.76-22.57,11.36-41.8,27.9-62.24,42.51l-3.26,23.99ZM123.75,47.02c.75-1.07-9.11-17.82-11.47-19.46l3,23.5,8.47-4.04ZM107.24,55.53l-3.96-24.96c-2.8,8.96-5.15,17.98-4.5,27.5l8.46-2.53ZM85.28,60.56c6.98-.86,4.28-.58,4.45-5.25.07-1.99.34-4.97.55-7,.58-5.69,2.21-11.22,3.49-16.76-6.35,7.96-8.73,18.93-8.49,29ZM138.78,67.56c.35.31,3.98-2.73,4.5-3.24.57-.56,1.4-1.06,1.45-1.97.1-1.75-4.05-16.11-4.96-16.79l-5.32,4.74,4.33,17.26ZM127.27,55.57l-9.83,5.22,4.84,19.78c.75.21.86-.25,1.27-.47,1.25-.68,7.07-5.2,7.24-6.3l-3.52-18.22ZM109.27,64.06l-9.51,2.77c.94,8.62,5.25,16.14,9.02,23.73l6.52-4.3-6.03-22.21ZM91.27,68.57l-5.5.5c.9,7.56,3.56,15.29,7.41,21.83.87,1.47,4.11,6.92,5.71,6.59.64-.13,2.93-1.84,2.81-2.58-5.22-7.92-8.82-16.98-10.44-26.35ZM138.77,101.56c3.52-9.08,5.56-18.74,6-28.5-1.43.89-4.67,2.58-4.98,4.26-.58,3.07.21,8.05-.02,11.48-.24,3.66-1.21,7.38-1.49,11.02-.04.55-.37,1.86.49,1.74ZM222.27,75.07c-1.79-1.7-10.57,4.73-12.23,6.01-2.92,2.25-14.29,12.14-15.79,14.71-.46.79-.58,1.36-.47,2.28,11.22-4.61,25.09-10.06,28.49-23ZM321.28,76.56c-13.7-1.39-22.2,16.9-22.5,28.5.93.13,1.48,0,2.27-.48,1.48-.87,8.37-8.23,9.98-10.02,4.28-4.73,10.93-11.32,10.25-18.01ZM129.77,100.06l1.5-17-6.52,4.79c1.52,3.72,2.35,7.83,3.98,11.5.27.6-.23.9,1.05.7ZM121.27,104.07l-3.74-10.5c-.65.68-3.95,2.27-3.74,3.21,2.44,2.52,4.65,5.18,7.48,7.28ZM271.78,122.56c5.21.6,18.09-6.38,20.72-10.52,1.69-2.66-.72-6.15-.76-9.23-.03-2.28,1.01-4.8.54-7.25-4.94,4.05-9.78,8.97-13.7,14.04-1.3,1.68-8.38,11.39-6.79,12.96ZM114.78,110.56l-7.49-8.27c-1.34-.74-2.13.66-2.99,1.53,0,1.13,8.64,6.65,10.48,6.75Z"/><path class="cls-1" d="M468.73,108.61c1.67,3.72-1.36,8.11-3.7,10.96-3.93,4.79-13.27,11.99-19.77,10.26-3.72-.99-8.35-6.87-6.98-10.76-1.15-.92-5.59,4.53-6.76,5.48-4.85,3.94-11.79,7.08-17.48,3.01-13.54-9.69-1.3-35.55,7.05-45.45,5.56-6.59,16.1-15.26,25.31-12.41,1.35.42,2.97,1.76,4.17,1.84,2.42.16,8.43-2.58,11.53-2.93,1.76-.2,4.81-.55,5.95.94.9,1.84-.75,7.5-1.29,9.72-2.02,8.33-5.4,16.51-7.71,24.79-.82,2.91-3.99,11.84-2,14.01.51.56.6.49,1.27.3,2.84-.81,7.71-11.61,10.43-9.76ZM442.63,78.67c-6.98,1.62-15.6,25.35-15.87,32.12s2.71,8.49,7.51,3.51c5.53-5.72,12.11-21.87,13.28-29.72.61-4.07.11-7.08-4.92-5.92Z"/><path class="cls-1" d="M358.68,69.21c6.1-.26,15.58,2.01,16.47,9.24.64,5.18-3.21,10.87-8.85,8.86s-3.39-9.54-8.74-11.27c-4.49,2.22-3.22,6.85-1.7,10.7,4.15,10.5,18.45,21.77,9.84,33.99-3.57,5.07-13.88,10.18-20.02,9.74-2.94-.21-10.53-3.25-12.9-5.14-7.29-5.79-4.4-19.17,5.54-16.04,4.26,1.34,5.05,13.31,10.22,13.3,6.86,0,1.86-10.83.33-13.86-3.94-7.83-12.07-14.87-11.03-24.36s12.18-14.79,20.85-15.16Z"/><path class="cls-1" d="M588.28,114.07c.09,6.15-9.36,11.74-14.51,13.74-11.28,4.39-25.13,1.19-26.49-12.5-1.84-18.61,10.76-41.61,29.97-45.52,6.49-1.32,15.33-.21,19.25,5.8,5.07,7.77-7.35,18.6-12.15,11.65-2.51-3.63-.38-13.75-7.53-8.38-7.78,5.84-13.73,29.55-9.8,38.21,2.32,5.1,7.58,3.74,11.6,1.58,3.3-1.77,5.32-5.49,9.66-4.59Z"/><path class="cls-1" d="M405.78,71.57h7.75c3.3,0,.66,6.72.18,8.43-2.13.5-9.85-.78-10.97.91-1.88,6.13-4.25,12.14-6.1,18.28-1.45,4.83-4.19,12.54-4.75,17.27-1.14,9.61,10.22-1.83,12.34,1.16.43,2.35-1.64,4.03-3.22,5.43-4.31,3.83-14.78,8.45-20.38,6.41-8.05-2.93-5.79-12.22-4.32-18.61,2.3-10,6.84-19.6,8.42-29.74l-3.39-1.12c-1.79-7.74,7.4-9.05,12.39-12.22,4.08-2.59,8.73-9.88,13.5-6.89l-1.46,10.68Z"/><path class="cls-1" d="M503.78,71.57h7.75c.12,0,1.56,1.43,1.64,1.81.25,1.27-1.73,4.94-1.41,6.67-.55.53-8.62-.75-10.68.57-1.23.79-5.16,13.6-5.93,16.07-1.6,5.11-4.62,13.75-5.24,18.76-.22,1.77-.7,4.2,1.23,5.05,2.93.78,9.3-5.68,10.92-2.42,1.13,2.27-6.33,7.46-8.12,8.41-6.69,3.54-19.92,6.72-21.16-4.16-1.37-11.96,8.14-28.91,10.01-40.96l-3.94-1.36c-1.23-7.76,8.27-9.21,13.39-12.73,3.85-2.65,7.97-9.29,12.91-6.48l-1.37,10.77Z"/><path class="cls-1" d="M532.8,118.55c4.55.33,7.45-8.96,10.46-9.77.81-.22,2.74.3,2.98,1.1.77,2.5-7.3,12.63-9.46,14.44-2.39,2-10.57,6.44-13.53,6.03-4.27-.59-8.04-4.27-8.47-8.54-1.4-14,8.47-27.99,9.99-41.74-4.45,1.47-5.04,8.93-10.5,8-.43-6.29,7.38-14.99,12.82-17.44s12.05-1.87,14.04,4.33c2.7,8.38-5.47,25.71-7.52,34.7-.35,1.52-2.02,8.07-.81,8.9Z"/><circle class="cls-1" cx="540.16" cy="56.37" r="8.81"/><path d="M149.28,89.56l3.26-23.99c20.44-14.61,39.67-31.15,62.24-42.51.19.89-.46,1.23-.99,1.76-3.84,3.86-9.37,7.62-13.51,11.49-16.23,15.14-29.64,33.04-44.98,49.02-.96,1-4.71,5.34-6.01,4.23Z"/><path d="M321.28,76.56c.68,6.69-5.97,13.28-10.25,18.01-1.62,1.78-8.5,9.15-9.98,10.02-.8.47-1.35.61-2.27.48.3-11.6,8.8-29.9,22.5-28.5Z"/><path d="M271.78,122.56c-1.59-1.57,5.49-11.28,6.79-12.96,3.92-5.07,8.76-9.99,13.7-14.04.47,2.44-.57,4.97-.54,7.25.04,3.08,2.45,6.57.76,9.23-2.63,4.14-15.51,11.12-20.72,10.52Z"/><path d="M109.27,64.06l6.03,22.21-6.52,4.3c-3.77-7.59-8.08-15.11-9.02-23.73l9.51-2.77Z"/><path d="M127.27,55.57l3.52,18.22c-.17,1.1-5.98,5.62-7.24,6.3-.41.23-.52.69-1.27.47l-4.84-19.78,9.83-5.22Z"/><path d="M222.27,75.07c-3.41,12.94-17.27,18.38-28.49,23-.12-.91,0-1.48.47-2.28,1.5-2.57,12.87-12.46,15.79-14.71,1.67-1.28,10.45-7.71,12.23-6.01Z"/><path d="M91.27,68.57c1.62,9.36,5.22,18.42,10.44,26.35.12.75-2.17,2.45-2.81,2.58-1.61.33-4.85-5.12-5.71-6.59-3.86-6.55-6.51-14.28-7.41-21.83l5.5-.5Z"/><path d="M107.24,55.53l-8.46,2.53c-.65-9.52,1.7-18.53,4.5-27.5l3.96,24.96Z"/><path d="M123.75,47.02l-8.47,4.04-3-23.5c2.36,1.63,12.22,18.38,11.47,19.46Z"/><path d="M138.78,67.56l-4.33-17.26,5.32-4.74c.91.67,5.06,15.04,4.96,16.79-.05.91-.88,1.41-1.45,1.97-.52.51-4.15,3.55-4.5,3.24Z"/><path d="M85.28,60.56c-.24-10.06,2.14-21.04,8.49-29-1.28,5.53-2.91,11.07-3.49,16.76-.21,2.02-.48,5-.55,7-.17,4.66,2.53,4.39-4.45,5.25Z"/><path d="M138.77,101.56c-.86.13-.53-1.18-.49-1.74.28-3.63,1.25-7.36,1.49-11.02.22-3.43-.56-8.42.02-11.48.32-1.68,3.56-3.37,4.98-4.26-.44,9.75-2.48,19.42-6,28.5Z"/><path d="M120.28,23.07c1.63-1.36,13.24,11.34,14.12,13.66.74,1.95-1.84,2.94-2.91,4.32l-11.22-17.98Z"/><path d="M129.77,100.06c-1.28.2-.78-.1-1.05-.7-1.63-3.67-2.46-7.78-3.98-11.5l6.52-4.79-1.5,17Z"/><path d="M121.27,104.07c-2.83-2.11-5.03-4.76-7.48-7.28-.21-.94,3.08-2.54,3.74-3.21l3.74,10.5Z"/><path d="M114.78,110.56c-1.84-.1-10.48-5.61-10.48-6.75.86-.87,1.65-2.26,2.99-1.53l7.49,8.27Z"/><path d="M442.63,78.67c5.03-1.17,5.53,1.85,4.92,5.92-1.17,7.85-7.75,24-13.28,29.72-4.81,4.97-7.78,3.22-7.51-3.51s8.89-30.5,15.87-32.12Z"/></g></svg>